<?xml version="1.0" standalone="no"?>
<!DOCTYPE svg PUBLIC "-//W3C//DTD SVG 20010904//EN"
 "http://www.w3.org/TR/2001/REC-SVG-20010904/DTD/svg10.dtd">
<svg version="1.0" xmlns="http://www.w3.org/2000/svg"
 width="250.000000pt" height="250.000000pt" viewBox="0 0 250.000000 250.000000"
 preserveAspectRatio="xMidYMid meet">
<metadata>
Created by potrace 1.14, written by Peter Selinger 2001-2017
</metadata>
<g transform="translate(0.000000,250.000000) scale(0.100000,-0.100000)"
fill="#000000" stroke="none">
<path d="M570 2299 c-42 -6 -65 -13 -174 -52 -21 -8 -42 -20 -47 -28 -5 -8 -9
-10 -9 -5 0 4 -17 -4 -37 -20 -67 -51 -103 -87 -96 -97 3 -6 1 -7 -4 -4 -16
10 -94 -109 -114 -175 -29 -92 -36 -144 -40 -278 -2 -88 52 -317 72 -305 5 4
9 3 7 -2 -4 -19 26 -93 39 -93 7 0 13 -9 13 -20 0 -23 70 -150 82 -150 4 0 8
-4 8 -10 0 -5 20 -36 44 -67 24 -32 46 -67 48 -78 2 -11 9 -19 16 -18 6 2 24
-14 39 -33 40 -52 276 -294 287 -294 5 0 19 -12 32 -28 13 -15 24 -24 24 -20
0 4 10 -3 23 -15 12 -12 38 -33 56 -47 19 -14 39 -30 46 -37 20 -19 289 -195
313 -204 12 -5 22 -13 22 -18 0 -5 10 -12 23 -16 34 -11 41 -12 52 -4 6 4 12
7 15 7 6 0 122 15 133 18 4 1 13 2 21 3 8 0 21 7 28 15 7 8 56 59 108 114 110
116 120 128 120 141 0 5 6 11 13 14 9 3 9 7 -1 20 -10 12 -11 21 -2 37 7 12 9
36 6 54 -6 29 -4 32 22 34 117 9 192 25 192 43 0 5 -4 9 -10 9 -5 0 -10 9 -10
19 0 22 -40 35 -101 34 -33 -1 -36 1 -37 28 0 16 5 29 11 30 23 1 102 8 148
13 26 3 59 11 75 17 27 11 47 15 85 18 10 0 26 19 37 42 l20 41 -81 -6 c-162
-12 -152 -13 -150 9 1 11 4 36 6 55 1 19 6 40 10 47 9 15 63 11 59 -5 -1 -7 1
-12 5 -13 5 0 20 -2 36 -4 15 -2 25 0 22 5 -8 13 13 23 28 13 6 -4 21 -6 31
-4 14 2 17 -2 13 -14 -5 -11 0 -18 16 -24 31 -12 40 -6 62 37 11 20 28 46 38
56 9 11 17 26 17 33 0 7 4 13 9 13 5 0 15 17 22 38 15 43 19 61 33 135 6 33
17 57 25 53 4 -3 7 3 8 12 1 9 19 69 41 132 46 133 60 209 40 211 -7 1 -34 2
-60 3 -26 1 -48 6 -48 11 0 6 9 9 20 9 11 -1 20 3 20 7 0 5 1 12 1 16 1 4 -11
15 -26 23 -37 20 -40 55 -7 81 14 10 21 19 16 19 -5 0 -4 4 1 8 6 4 18 24 27
44 17 37 17 38 -5 50 -12 7 -26 11 -30 10 -5 -1 -6 1 -3 6 7 12 -146 94 -229
123 -52 17 -51 16 -31 38 30 33 28 59 -5 76 -16 9 -29 12 -29 9 0 -4 -9 1 -19
10 -11 10 -25 15 -30 11 -6 -3 -11 -2 -11 3 0 13 -78 28 -135 26 -136 -5 -161
-8 -190 -28 -16 -12 -36 -22 -44 -24 -23 -5 -141 -76 -141 -85 0 -4 -5 -5 -10
-2 -6 3 -13 -1 -16 -9 -3 -9 -11 -16 -17 -16 -5 0 -51 -43 -102 -95 -91 -95
-91 -95 -112 -76 -12 11 -24 17 -27 14 -3 -4 -6 -1 -6 6 0 15 -90 107 -102
103 -4 -1 -7 2 -6 7 2 4 -17 25 -42 45 -25 21 -55 47 -68 57 -54 46 -160 98
-215 105 -71 9 -160 11 -207 3z m1423 -114 c31 -9 57 -21 57 -27 0 -6 -10 -8
-22 -5 -13 3 -57 9 -98 13 -41 3 -77 8 -79 10 -2 2 -1 11 3 20 7 19 46 16 139
-11z m62 -129 c60 -15 66 -19 61 -40 -4 -18 1 -23 37 -34 39 -13 43 -12 56 7
13 21 14 21 70 -11 31 -17 58 -35 59 -40 2 -4 10 -8 17 -8 7 0 15 -7 19 -15 4
-12 -5 -15 -55 -15 -52 0 -62 3 -66 19 -4 15 -12 18 -36 15 -78 -12 -123 -11
-145 3 -13 8 -49 14 -81 14 -49 1 -60 4 -64 19 -6 24 0 30 32 30 28 0 58 34
41 45 -22 13 -9 27 18 20 15 -4 32 -8 37 -9z"/>
<path d="M2050 2016 c0 -2 8 -10 18 -17 15 -13 16 -12 3 4 -13 16 -21 21 -21
13z"/>
</g>
</svg>
